<svg width="18" height="18" viewBox="0 0 75 75" fill="#100f0d" xmlns="http://www.w3.org/2000/svg">
<path d="M 6.4375 46.949219 L 1.554688 48.203125 C 1.566406 48.234375 1.574219 48.265625 1.582031 48.296875 C 2.191406 50.347656 2.984375 52.316406 3.921875 54.191406 L 8.386719 51.824219 C 7.613281 50.265625 6.953125 48.640625 6.4375 46.949219 Z M 23.902344 72.460938 C 25.953125 73.257812 28.09375 73.878906 30.300781 74.304688 L 30.898438 69.289062 C 29.082031 68.917969 27.328125 68.386719 25.636719 67.714844 Z M 16.339844 68.457031 C 18.148438 69.695312 20.070312 70.789062 22.097656 71.699219 L 23.839844 66.949219 C 22.183594 66.179688 20.613281 65.277344 19.121094 64.246094 Z M 40.324219 69.839844 L 40.902344 74.847656 C 43.195312 74.640625 45.429688 74.230469 47.578125 73.625 L 45.855469 68.875 C 44.0625 69.351562 42.21875 69.675781 40.324219 69.839844 Z M 9.3125 53.589844 L 4.855469 55.964844 L 4.90625 56.058594 C 5.984375 57.945312 7.214844 59.722656 8.585938 61.386719 L 12.300781 57.9375 C 11.1875 56.574219 10.191406 55.121094 9.3125 53.589844 Z M 13.648438 59.488281 L 9.941406 62.929688 C 11.414062 64.523438 13.019531 65.992188 14.75 67.3125 L 17.539062 63.078125 C 16.144531 61.996094 14.84375 60.792969 13.648438 59.488281 Z M 37.503906 69.964844 C 35.921875 69.964844 34.359375 69.851562 32.832031 69.632812 L 32.234375 74.628906 C 33.960938 74.871094 35.714844 75 37.503906 75 C 37.992188 75 38.46875 74.992188 38.949219 74.972656 L 38.371094 69.957031 C 38.082031 69.964844 37.792969 69.964844 37.503906 69.964844 Z M 68.535156 47.050781 L 73.359375 48.503906 C 74.050781 46.289062 74.527344 43.984375 74.78125 41.609375 L 69.746094 41.320312 C 69.519531 43.289062 69.105469 45.203125 68.535156 47.050781 Z M 74.699219 32.625 L 69.730469 33.503906 C 69.890625 34.8125 69.972656 36.140625 69.972656 37.496094 C 69.972656 38.121094 69.957031 38.742188 69.917969 39.367188 L 74.941406 39.664062 C 74.988281 38.945312 75.007812 38.21875 75.007812 37.496094 C 75.007812 35.84375 74.898438 34.226562 74.699219 32.625 Z M 47.734375 68.3125 L 49.457031 73.058594 C 51.636719 72.316406 53.734375 71.394531 55.710938 70.28125 L 52.9375 66.054688 C 51.285156 66.957031 49.550781 67.707031 47.734375 68.3125 Z M 65.363281 54.140625 L 69.738281 56.671875 C 70.929688 54.675781 71.933594 52.5625 72.746094 50.355469 L 67.902344 48.898438 C 67.21875 50.738281 66.367188 52.488281 65.363281 54.140625 Z M 54.636719 65.070312 L 57.402344 69.289062 C 59.363281 68.058594 61.199219 66.660156 62.898438 65.097656 L 59.210938 61.617188 C 57.792969 62.890625 56.261719 64.046875 54.636719 65.070312 Z M 60.628906 60.261719 L 64.304688 63.730469 C 65.933594 62.070312 67.398438 60.261719 68.691406 58.328125 L 64.304688 55.796875 C 63.214844 57.394531 61.984375 58.886719 60.628906 60.261719 Z M 69.429688 31.570312 L 74.394531 30.691406 C 73.957031 28.351562 73.316406 26.09375 72.476562 23.921875 L 67.839844 25.921875 C 68.535156 27.726562 69.070312 29.617188 69.429688 31.570312 Z M 57.539062 11.96875 L 60.78125 8.089844 C 58.976562 6.652344 57.023438 5.386719 54.964844 4.304688 L 52.695312 8.816406 C 54.410156 9.714844 56.027344 10.773438 57.539062 11.96875 Z M 53.210938 3.4375 C 51.148438 2.480469 48.988281 1.710938 46.746094 1.152344 C 46.730469 1.140625 46.71875 1.132812 46.703125 1.132812 L 45.546875 6.03125 C 47.417969 6.507812 49.226562 7.148438 50.941406 7.945312 Z M 44.796875 0.699219 C 42.589844 0.265625 40.3125 0.03125 37.992188 0.00390625 L 37.992188 5.035156 C 39.914062 5.0625 41.804688 5.253906 43.632812 5.605469 Z M 67.082031 24.113281 L 71.71875 22.117188 C 70.75 19.964844 69.585938 17.933594 68.238281 16.015625 L 64.191406 19.035156 C 65.300781 20.625 66.269531 22.324219 67.082031 24.113281 Z M 5.140625 39.714844 L 5.007812 39.714844 L 0.0820312 39.988281 C 0.222656 42.148438 0.550781 44.25 1.042969 46.292969 L 5.921875 45.039062 C 5.511719 43.316406 5.261719 41.535156 5.140625 39.714844 Z M 4.945312 37.753906 L 5.042969 37.753906 C 5.039062 37.667969 5.035156 37.582031 5.035156 37.496094 C 5.035156 35.78125 5.167969 34.089844 5.421875 32.4375 L 0.46875 31.558594 C 0.164062 33.492188 0 35.472656 0 37.496094 C 0 37.679688 0 37.859375 0.0078125 38.039062 L 4.945312 37.761719 Z M 63.023438 17.453125 L 67.082031 14.433594 C 65.644531 12.589844 64.035156 10.890625 62.292969 9.355469 L 59.039062 13.222656 C 60.492188 14.507812 61.832031 15.925781 63.023438 17.453125 Z M 7.375 25.414062 L 2.738281 23.40625 C 1.925781 25.40625 1.285156 27.484375 0.820312 29.632812 L 5.792969 30.519531 C 6.171875 28.757812 6.707031 27.050781 7.375 25.414062 Z M 10.863281 18.972656 L 6.816406 15.945312 C 5.558594 17.722656 4.457031 19.621094 3.523438 21.609375 L 8.152344 23.617188 C 8.917969 21.988281 9.832031 20.4375 10.863281 18.972656 Z M 36.03125 5.0625 L 36.03125 0.0195312 C 33.773438 0.109375 31.566406 0.402344 29.433594 0.863281 L 30.574219 5.769531 C 32.34375 5.386719 34.167969 5.144531 36.03125 5.0625 Z M 28.675781 6.246094 L 27.535156 1.339844 C 25.347656 1.9375 23.253906 2.730469 21.246094 3.691406 L 23.496094 8.207031 C 25.152344 7.414062 26.875 6.753906 28.675781 6.246094 Z M 15.726562 13.441406 L 12.488281 9.554688 C 10.851562 11.019531 9.335938 12.636719 7.980469 14.371094 L 12.027344 17.398438 C 13.140625 15.980469 14.378906 14.652344 15.726562 13.441406 Z M 17.214844 12.167969 L 13.980469 8.289062 C 15.707031 6.898438 17.550781 5.660156 19.511719 4.585938 L 21.761719 9.113281 C 20.152344 9.996094 18.632812 11.027344 17.214844 12.167969 " fill-opacity="1" fill-rule="nonzero"/><path fill="#100f0d" d="M 58.222656 47.589844 L 57.773438 48.371094 C 57.523438 48.800781 56.96875 48.953125 56.539062 48.699219 L 47.207031 43.3125 C 45.257812 46.132812 42.152344 48.085938 38.570312 48.484375 L 38.570312 59.382812 C 38.570312 59.882812 38.164062 60.285156 37.664062 60.285156 L 36.761719 60.285156 C 36.265625 60.285156 35.859375 59.882812 35.859375 59.382812 L 35.859375 48.484375 C 32.453125 48.105469 29.480469 46.316406 27.523438 43.714844 L 18.195312 49.894531 C 17.777344 50.167969 17.21875 50.054688 16.941406 49.640625 L 16.441406 48.886719 C 16.167969 48.46875 16.28125 47.910156 16.695312 47.632812 L 26.140625 41.378906 C 25.460938 39.863281 25.074219 38.191406 25.074219 36.425781 C 25.074219 34.558594 25.507812 32.796875 26.257812 31.21875 L 15.46875 24.988281 C 15.035156 24.742188 14.886719 24.1875 15.136719 23.757812 L 15.589844 22.972656 C 15.839844 22.539062 16.390625 22.394531 16.824219 22.640625 L 27.6875 28.914062 C 29.648438 26.433594 32.550781 24.734375 35.859375 24.363281 L 35.859375 11.960938 C 35.859375 11.460938 36.265625 11.054688 36.761719 11.054688 L 37.664062 11.054688 C 38.164062 11.054688 38.570312 11.460938 38.570312 11.960938 L 38.570312 24.363281 C 41.535156 24.695312 44.167969 26.09375 46.09375 28.164062 L 56.234375 21.449219 C 56.652344 21.171875 57.210938 21.285156 57.488281 21.703125 L 57.988281 22.457031 C 58.261719 22.871094 58.148438 23.433594 57.730469 23.710938 L 47.710938 30.34375 C 48.75 32.136719 49.355469 34.207031 49.355469 36.425781 C 49.355469 38.015625 49.039062 39.53125 48.484375 40.921875 L 57.894531 46.351562 C 58.328125 46.601562 58.476562 47.15625 58.222656 47.589844 Z M 67.9375 33.824219 L 67.9375 33.816406 C 67.867188 33.164062 67.765625 32.523438 67.648438 31.878906 C 67.316406 30.074219 66.816406 28.320312 66.175781 26.640625 C 65.945312 26.023438 65.699219 25.429688 65.425781 24.832031 C 64.667969 23.171875 63.773438 21.589844 62.742188 20.105469 C 62.371094 19.5625 61.984375 19.039062 61.578125 18.523438 C 60.457031 17.113281 59.226562 15.804688 57.882812 14.601562 C 57.394531 14.175781 56.898438 13.753906 56.382812 13.34375 C 54.972656 12.25 53.472656 11.265625 51.882812 10.425781 C 51.3125 10.121094 50.722656 9.832031 50.128906 9.558594 C 46.277344 7.816406 41.996094 6.839844 37.503906 6.839844 C 20.59375 6.839844 6.839844 20.59375 6.839844 37.503906 C 6.839844 54.410156 20.59375 68.164062 37.503906 68.164062 C 45.492188 68.164062 52.792969 65.09375 58.25 60.058594 C 58.613281 59.722656 58.976562 59.378906 59.316406 59.027344 C 60.574219 57.753906 61.722656 56.371094 62.742188 54.898438 C 63.113281 54.355469 63.476562 53.804688 63.800781 53.242188 C 64.730469 51.707031 65.527344 50.082031 66.167969 48.382812 C 66.402344 47.777344 66.613281 47.160156 66.800781 46.539062 C 67.332031 44.820312 67.722656 43.039062 67.9375 41.214844 C 68.019531 40.574219 68.074219 39.925781 68.121094 39.265625 C 68.148438 38.683594 68.167969 38.089844 68.167969 37.503906 C 68.167969 36.253906 68.09375 35.035156 67.9375 33.824219 " fill-opacity="1" fill-rule="nonzero"/><path fill="#100f0d" d="M 39.8125 33.136719 C 39.09375 32.855469 38.316406 32.707031 37.503906 32.707031 C 36.6875 32.707031 35.910156 32.855469 35.191406 33.136719 L 35.191406 30.707031 C 35.191406 29.433594 36.230469 28.398438 37.503906 28.398438 C 38.78125 28.398438 39.8125 29.433594 39.8125 30.707031 Z M 38.347656 41.328125 C 38.441406 41.476562 38.496094 41.648438 38.496094 41.835938 L 38.496094 43.027344 C 38.496094 43.574219 38.050781 44.023438 37.503906 44.023438 C 36.957031 44.023438 36.511719 43.574219 36.511719 43.027344 L 36.511719 41.835938 C 36.511719 41.648438 36.566406 41.476562 36.65625 41.328125 C 36.230469 41.054688 35.949219 40.570312 35.949219 40.027344 C 35.949219 39.164062 36.640625 38.464844 37.503906 38.464844 C 38.363281 38.464844 39.0625 39.164062 39.0625 40.027344 C 39.0625 40.570312 38.78125 41.054688 38.347656 41.328125 Z M 41.242188 33.914062 C 41.257812 33.792969 41.261719 33.679688 41.261719 33.558594 L 41.261719 30.707031 C 41.261719 28.628906 39.578125 26.945312 37.503906 26.945312 C 35.425781 26.945312 33.742188 28.628906 33.742188 30.707031 L 33.742188 33.558594 C 33.742188 33.679688 33.746094 33.796875 33.761719 33.917969 C 32.164062 35.074219 31.121094 36.960938 31.121094 39.09375 C 31.121094 42.613281 33.980469 45.472656 37.503906 45.472656 C 41.027344 45.472656 43.886719 42.613281 43.886719 39.09375 C 43.886719 36.960938 42.84375 35.074219 41.242188 33.914062 " fill-opacity="1" fill-rule="nonzero"/>
</svg>
